# xmcd
#
# Track frame offsets: 
#        150
#        16136
#        33608
#        50759
#        68048
#        85704
#        98811
#        117862
#        130660
#        147239
#        165254
#        181603
#        201236
#        215470
#        232300
#        247181
#        259165
#        278613
#        294389
#        313802
#
# Disc length: 4405 seconds
#
# Revision: 14
# Processed by: cddbd v1.5.2PL0 Copyright (c) Steve Scherf et al.
# Submitted via: ExactAudioCopyFreeDBPlugin 1.0
#
DISCID=21113314
DTITLE=Kenny Rogers - Twenty Greatest Hits
DYEAR=1983
DGENRE=Country
TTITLE0=Lucille
TTITLE1=Lady
TTITLE2=Love Lifted Me
TTITLE3=We've Got Tonight (with Sheena Easton)
TTITLE4=Scarlet Fever
TTITLE5=Love Or Something Like It
TTITLE6=She Believes In Me
TTITLE7=Ruby Don't Take Your Love To Town
TTITLE8=Don't Fall In Love With A Dreamer (With Kim Carnes)
TTITLE9=You Were A Good Friend
TTITLE10=The Gambler
TTITLE11=Through The Years
TTITLE12=Daytime Friends
TTITLE13=You Decorated My Life
TTITLE14='Till I Can Make It On My Own (with Dottie West)
TTITLE15=Reuben James
TTITLE16=Coward Of The County
TTITLE17=I Don't Need You
TTITLE18=Something's Burning
TTITLE19=Love Will Turn You Around
EXTD=
EXTT0=
EXTT1=
EXTT2=
EXTT3=
EXTT4=
EXTT5=
EXTT6=
EXTT7=
EXTT8=
EXTT9=
EXTT10=
EXTT11=
EXTT12=
EXTT13=
EXTT14=
EXTT15=
EXTT16=
EXTT17=
EXTT18=
EXTT19=
PLAYORDER=
